<svg width="14" height="16" viewBox="0 0 14 16" fill="none" xmlns="http://www.w3.org/2000/svg">
<path fill-rule="evenodd" clip-rule="evenodd" d="M13.0639 3.31674L10.3032 15.6951L0 12.3783L2.76072 0L13.0639 3.31674ZM8.44072 10.1204C7.90725 9.94865 7.35891 10.329 7.21597 10.9699C7.07303 11.6108 7.38959 12.2696 7.92306 12.4413C8.45653 12.613 9.00487 12.2327 9.14781 11.5918C9.29075 10.9509 8.97416 10.2921 8.44072 10.1204ZM6.79078 6.68706C6.25734 6.51533 5.709 6.89569 5.56603 7.5366C5.42309 8.17748 5.73969 8.8363 6.27316 9.00802C6.80662 9.17975 7.35494 8.79939 7.49791 8.15848C7.64084 7.5176 7.32425 6.85882 6.79078 6.68706ZM5.14087 3.25378C4.60741 3.08205 4.05906 3.46237 3.91612 4.10329C3.77319 4.7442 4.08978 5.40298 4.62322 5.57471C5.15669 5.74643 5.70503 5.36611 5.84797 4.7252C5.99091 4.08429 5.67434 3.42551 5.14087 3.25378Z" fill="#0E4EA9"/>
</svg>
