<svg width="40" height="40" viewBox="0 0 40 40" fill="none" xmlns="http://www.w3.org/2000/svg">
<g clip-path="url(#clip0_6_1893)">
<path d="M12.8978 2.16028C12.8978 1.82924 12.7663 1.51177 12.5322 1.27769C12.2981 1.04361 11.9806 0.912109 11.6496 0.912109C11.3186 0.912109 11.0011 1.04361 10.767 1.27769C10.5329 1.51177 10.4014 1.82924 10.4014 2.16028V4.78975C8.00495 4.98113 6.43393 5.45045 5.27896 6.60708C4.12232 7.76205 3.65301 9.33474 3.45996 11.7296H36.4815C36.2884 9.33308 35.8191 7.76205 34.6625 6.60708C33.5075 5.45045 31.9348 4.98113 29.54 4.78809V2.16028C29.54 1.82924 29.4085 1.51177 29.1744 1.27769C28.9403 1.04361 28.6229 0.912109 28.2918 0.912109C27.9608 0.912109 27.6433 1.04361 27.4092 1.27769C27.1752 1.51177 27.0437 1.82924 27.0437 2.16028V4.67825C25.937 4.65661 24.6954 4.65661 23.2992 4.65661H16.6423C15.246 4.65661 14.0045 4.65661 12.8978 4.67825V2.16028Z" fill="#415FA1"/>
<path fill-rule="evenodd" clip-rule="evenodd" d="M3.32861 17.9711C3.32861 16.5748 3.32861 15.3333 3.35025 14.2266H36.5914C36.6131 15.3333 36.6131 16.5748 36.6131 17.9711V21.2995C36.6131 27.5753 36.6131 30.714 34.6626 32.6628C32.7121 34.6116 29.5751 34.6133 23.2993 34.6133H16.6424C10.3666 34.6133 7.22789 34.6133 5.27908 32.6628C3.33028 30.7124 3.32861 27.5753 3.32861 21.2995V17.9711ZM28.292 21.2995C28.7333 21.2995 29.1566 21.1242 29.4687 20.8121C29.7808 20.5 29.9562 20.0767 29.9562 19.6353C29.9562 19.1939 29.7808 18.7706 29.4687 18.4585C29.1566 18.1464 28.7333 17.9711 28.292 17.9711C27.8506 17.9711 27.4273 18.1464 27.1152 18.4585C26.8031 18.7706 26.6277 19.1939 26.6277 19.6353C26.6277 20.0767 26.8031 20.5 27.1152 20.8121C27.4273 21.1242 27.8506 21.2995 28.292 21.2995ZM28.292 27.9564C28.7333 27.9564 29.1566 27.7811 29.4687 27.469C29.7808 27.1569 29.9562 26.7336 29.9562 26.2922C29.9562 25.8508 29.7808 25.4275 29.4687 25.1154C29.1566 24.8033 28.7333 24.628 28.292 24.628C27.8506 24.628 27.4273 24.8033 27.1152 25.1154C26.8031 25.4275 26.6277 25.8508 26.6277 26.2922C26.6277 26.7336 26.8031 27.1569 27.1152 27.469C27.4273 27.7811 27.8506 27.9564 28.292 27.9564ZM21.6351 19.6353C21.6351 20.0767 21.4597 20.5 21.1476 20.8121C20.8355 21.1242 20.4122 21.2995 19.9708 21.2995C19.5295 21.2995 19.1062 21.1242 18.7941 20.8121C18.482 20.5 18.3066 20.0767 18.3066 19.6353C18.3066 19.1939 18.482 18.7706 18.7941 18.4585C19.1062 18.1464 19.5295 17.9711 19.9708 17.9711C20.4122 17.9711 20.8355 18.1464 21.1476 18.4585C21.4597 18.7706 21.6351 19.1939 21.6351 19.6353ZM21.6351 26.2922C21.6351 26.7336 21.4597 27.1569 21.1476 27.469C20.8355 27.7811 20.4122 27.9564 19.9708 27.9564C19.5295 27.9564 19.1062 27.7811 18.7941 27.469C18.482 27.1569 18.3066 26.7336 18.3066 26.2922C18.3066 25.8508 18.482 25.4275 18.7941 25.1154C19.1062 24.8033 19.5295 24.628 19.9708 24.628C20.4122 24.628 20.8355 24.8033 21.1476 25.1154C21.4597 25.4275 21.6351 25.8508 21.6351 26.2922ZM11.6497 21.2995C12.0911 21.2995 12.5144 21.1242 12.8265 20.8121C13.1386 20.5 13.314 20.0767 13.314 19.6353C13.314 19.1939 13.1386 18.7706 12.8265 18.4585C12.5144 18.1464 12.0911 17.9711 11.6497 17.9711C11.2083 17.9711 10.785 18.1464 10.4729 18.4585C10.1608 18.7706 9.98551 19.1939 9.98551 19.6353C9.98551 20.0767 10.1608 20.5 10.4729 20.8121C10.785 21.1242 11.2083 21.2995 11.6497 21.2995ZM11.6497 27.9564C12.0911 27.9564 12.5144 27.7811 12.8265 27.469C13.1386 27.1569 13.314 26.7336 13.314 26.2922C13.314 25.8508 13.1386 25.4275 12.8265 25.1154C12.5144 24.8033 12.0911 24.628 11.6497 24.628C11.2083 24.628 10.785 24.8033 10.4729 25.1154C10.1608 25.4275 9.98551 25.8508 9.98551 26.2922C9.98551 26.7336 10.1608 27.1569 10.4729 27.469C10.785 27.7811 11.2083 27.9564 11.6497 27.9564Z" fill="#415FA1"/>
</g>
<defs>
<clipPath id="clip0_6_1893">
<rect width="39.9414" height="39.9414" fill="white"/>
</clipPath>
</defs>
</svg>
