<svg width="32" height="29" viewBox="0 0 32 29" fill="none" xmlns="http://www.w3.org/2000/svg">
<path d="M15.719 26.0144C15.8154 26.0144 15.9117 25.9904 16.0081 25.9422C16.1044 25.894 16.1767 25.8458 16.2249 25.7976L28.0759 13.9466C28.3649 13.6576 28.5759 13.3324 28.7089 12.9711C28.8419 12.6098 28.9079 12.2485 28.9069 11.8872C28.9069 11.5018 28.8409 11.1342 28.7089 10.7844C28.5769 10.4347 28.3659 10.1278 28.0759 9.86381L21.9336 3.72151C21.6686 3.43246 21.3613 3.22194 21.0115 3.08994C20.6618 2.95794 20.2952 2.89146 19.9117 2.89049C19.5504 2.89049 19.1891 2.95697 18.8278 3.08994C18.4664 3.2229 18.1413 3.43342 17.8522 3.72151L17.4548 4.11895L20.1285 6.82879C20.4898 7.16601 20.7548 7.55141 20.9234 7.98499C21.092 8.41856 21.1763 8.87622 21.1763 9.35797C21.1763 10.3696 20.8333 11.219 20.1473 11.9059C19.4613 12.5929 18.6119 12.9359 17.5993 12.935C17.1175 12.935 16.6541 12.8506 16.209 12.682C15.7638 12.5134 15.3722 12.2605 15.034 11.9233L12.3227 9.24958L5.99975 15.5725C5.92749 15.6448 5.87353 15.7233 5.83788 15.8081C5.80224 15.8929 5.78393 15.983 5.78297 16.0784C5.78297 16.2711 5.85523 16.4459 5.99975 16.603C6.14428 16.76 6.31289 16.8381 6.50559 16.8371C6.60194 16.8371 6.69829 16.813 6.79464 16.7649C6.89099 16.7167 6.96325 16.6685 7.01142 16.6203L10.9136 12.7182C11.1786 12.4532 11.51 12.3145 11.9079 12.3019C12.3058 12.2894 12.6488 12.4282 12.9369 12.7182C13.2019 12.9831 13.3344 13.3204 13.3344 13.7298C13.3344 14.1393 13.2019 14.4766 12.9369 14.7415L9.0709 18.6437C8.99864 18.7159 8.94468 18.7945 8.90903 18.8793C8.87338 18.964 8.85508 19.0541 8.85411 19.1495C8.85411 19.3422 8.92638 19.5108 9.0709 19.6554C9.21543 19.7999 9.38404 19.8721 9.57674 19.8721C9.67309 19.8721 9.76944 19.8481 9.86579 19.7999C9.96214 19.7517 10.0344 19.7035 10.0826 19.6554L13.9847 15.7893C14.2497 15.5244 14.5811 15.3856 14.9791 15.3731C15.377 15.3606 15.72 15.4993 16.0081 15.7893C16.273 16.0543 16.4055 16.3915 16.4055 16.801C16.4055 17.2105 16.273 17.5477 16.0081 17.8127L12.142 21.7148C12.0698 21.763 12.0158 21.8353 11.9802 21.9316C11.9445 22.028 11.9262 22.1243 11.9253 22.2207C11.9253 22.4134 11.9975 22.582 12.142 22.7265C12.2866 22.871 12.4552 22.9433 12.6479 22.9433C12.7442 22.9433 12.8348 22.925 12.9196 22.8884C13.0044 22.8518 13.0824 22.7978 13.1537 22.7265L17.0559 18.8605C17.3208 18.5955 17.6523 18.4568 18.0502 18.4442C18.4481 18.4317 18.7911 18.5705 19.0792 18.8605C19.3442 19.1254 19.4767 19.4627 19.4767 19.8721C19.4767 20.2816 19.3442 20.6189 19.0792 20.8838L15.1771 24.786C15.1048 24.8582 15.0508 24.9368 15.0152 25.0216C14.9795 25.1063 14.9612 25.1964 14.9603 25.2918C14.9603 25.4845 15.0388 25.6531 15.1959 25.7976C15.3529 25.9422 15.5273 26.0144 15.719 26.0144ZM15.6829 28.9049C14.7917 28.9049 14.003 28.6101 13.317 28.0204C12.631 27.4308 12.2273 26.6898 12.1059 25.7976C11.2869 25.6772 10.6005 25.34 10.0464 24.786C9.49243 24.232 9.15521 23.5455 9.03477 22.7265C8.2158 22.6061 7.53557 22.2631 6.99408 21.6975C6.4526 21.1319 6.12115 20.4512 5.99975 19.6554C5.08443 19.5349 4.33772 19.1375 3.75962 18.463C3.18152 17.7886 2.89247 16.9937 2.89247 16.0784C2.89247 15.5966 2.98304 15.1332 3.16418 14.688C3.34532 14.2429 3.60402 13.8512 3.94028 13.5131L10.2632 7.1901C10.8172 6.63609 11.4979 6.35908 12.3054 6.35908C13.1128 6.35908 13.793 6.63609 14.346 7.1901L17.0559 9.89994C17.1041 9.9722 17.1763 10.0266 17.2727 10.0633C17.369 10.0999 17.4654 10.1177 17.5617 10.1167C17.7785 10.1167 17.9592 10.0507 18.1037 9.91873C18.2482 9.78673 18.3205 9.61185 18.3205 9.3941C18.3205 9.29775 18.3022 9.2014 18.2656 9.10505C18.2289 9.0087 18.175 8.93644 18.1037 8.88827L12.9369 3.72151C12.672 3.43246 12.3651 3.22194 12.0163 3.08994C11.6675 2.95794 11.3 2.89146 10.9136 2.89049C10.5523 2.89049 10.191 2.95697 9.82966 3.08994C9.46834 3.2229 9.14316 3.43342 8.85411 3.72151L3.75962 8.85213C3.4224 9.18936 3.18152 9.5868 3.037 10.0445C2.89247 10.5021 2.85634 10.9598 2.9286 11.4174C3.00087 11.8269 2.91656 12.1882 2.67569 12.5014C2.43481 12.8145 2.10963 12.9952 1.70014 13.0433C1.29066 13.0915 0.929346 13.001 0.61621 12.7716C0.303073 12.5423 0.122417 12.2234 0.0742421 11.8149C-0.0702825 10.8996 -0.00380118 10.0026 0.273686 9.12384C0.551173 8.24513 1.02666 7.46807 1.70014 6.79266L6.79464 1.69816C7.37274 1.14415 8.01732 0.722623 8.72838 0.433574C9.43944 0.144525 10.1678 0 10.9136 0C11.6593 0 12.3882 0.144525 13.1002 0.433574C13.8123 0.722623 14.4443 1.14415 14.9964 1.69816L15.3939 2.09561L15.7913 1.69816C16.3694 1.14415 17.014 0.722623 17.725 0.433574C18.4361 0.144525 19.1645 0 19.9102 0C20.656 0 21.3849 0.144525 22.0969 0.433574C22.8089 0.722623 23.441 1.14415 23.9931 1.69816L30.0992 7.80433C30.6532 8.35834 31.0748 8.99666 31.3638 9.71928C31.6529 10.4419 31.7974 11.1766 31.7974 11.9233C31.7974 12.67 31.6529 13.3989 31.3638 14.1099C31.0748 14.821 30.6532 15.4531 30.0992 16.0061L18.2482 27.821C17.911 28.1582 17.5198 28.4232 17.0747 28.6159C16.6295 28.8086 16.1656 28.9049 15.6829 28.9049Z" fill="#415FA1"/>
</svg>
