<svg width="28" height="31" viewBox="0 0 28 31" fill="none" xmlns="http://www.w3.org/2000/svg">
<path d="M0 30.3816V3.03816C0 2.20267 0.2695 1.48769 0.8085 0.89322C1.3475 0.298753 1.99467 0.00101272 2.75 0H24.75C25.5063 0 26.1539 0.29774 26.6929 0.89322C27.2319 1.4887 27.5009 2.20368 27.5 3.03816V21.2671C27.5 22.1026 27.231 22.8181 26.6929 23.4136C26.1548 24.0091 25.5072 24.3063 24.75 24.3053H5.5L0 30.3816ZM8.25 13.6717C8.63958 13.6717 8.96638 13.5259 9.23038 13.2342C9.49438 12.9426 9.62592 12.582 9.625 12.1527C9.62408 11.7233 9.49208 11.3627 9.229 11.0711C8.96592 10.7794 8.63958 10.6336 8.25 10.6336C7.86042 10.6336 7.53408 10.7794 7.271 11.0711C7.00792 11.3627 6.87592 11.7233 6.875 12.1527C6.87408 12.582 7.00608 12.9431 7.271 13.2358C7.53592 13.5284 7.86225 13.6738 8.25 13.6717ZM13.75 13.6717C14.1396 13.6717 14.4664 13.5259 14.7304 13.2342C14.9944 12.9426 15.1259 12.582 15.125 12.1527C15.1241 11.7233 14.9921 11.3627 14.729 11.0711C14.4659 10.7794 14.1396 10.6336 13.75 10.6336C13.3604 10.6336 13.0341 10.7794 12.771 11.0711C12.5079 11.3627 12.3759 11.7233 12.375 12.1527C12.3741 12.582 12.5061 12.9431 12.771 13.2358C13.0359 13.5284 13.3623 13.6738 13.75 13.6717ZM19.25 13.6717C19.6396 13.6717 19.9664 13.5259 20.2304 13.2342C20.4944 12.9426 20.6259 12.582 20.625 12.1527C20.6241 11.7233 20.4921 11.3627 20.229 11.0711C19.9659 10.7794 19.6396 10.6336 19.25 10.6336C18.8604 10.6336 18.5341 10.7794 18.271 11.0711C18.0079 11.3627 17.8759 11.7233 17.875 12.1527C17.8741 12.582 18.0061 12.9431 18.271 13.2358C18.5359 13.5284 18.8623 13.6738 19.25 13.6717Z" fill="#415FA1"/>
</svg>
