<svg width="28" height="31" viewBox="0 0 28 31" fill="none" xmlns="http://www.w3.org/2000/svg">
<path fill-rule="evenodd" clip-rule="evenodd" d="M23.7492 21.4751L21.2329 24.255C17.5341 28.3398 15.6862 30.3814 13.3899 30.3814C11.0923 30.3814 9.24428 28.3398 5.5469 24.255C1.84815 20.1686 0.00014931 18.127 0.00014931 15.5886C0.00014931 13.0517 1.84815 11.0086 5.54553 6.92377L8.06178 4.14385C10.1875 1.79687 11.249 0.62262 12.6282 0.186644C14.0073 -0.250852 15.4716 0.122842 18.399 0.870231L20.0875 1.30013C22.5515 1.92751 23.7835 2.24196 24.6278 3.17316C25.472 4.10436 25.7553 5.46697 26.3232 8.18917L26.7137 10.0546C27.3888 13.2902 27.727 14.9065 27.3324 16.4302C26.9364 17.9538 25.8735 19.1281 23.7492 21.4751ZM10.5492 13.8933C11.4732 12.871 12.8014 12.8786 13.8533 13.4908C14.0514 13.3392 14.2914 13.2691 14.5314 13.2926C14.7715 13.3162 14.9965 13.4318 15.1674 13.6196C15.3383 13.8073 15.4443 14.0552 15.467 14.3203C15.4896 14.5854 15.4276 14.8508 15.2915 15.0706C15.539 15.5871 15.671 16.1537 15.6655 16.7188C15.663 17.021 15.5519 17.3096 15.3567 17.5213C15.1615 17.733 14.8982 17.8503 14.6247 17.8475C14.3511 17.8447 14.0899 17.7219 13.8983 17.5063C13.7067 17.2906 13.6005 16.9997 13.603 16.6975C13.5913 16.3458 13.4544 16.0134 13.2222 15.7724C12.69 15.1845 12.1565 15.338 12.0067 15.5035C11.8568 15.6706 11.7179 16.2585 12.25 16.8464C13.328 18.0374 13.6855 20.0942 12.4934 21.4113C11.568 22.4336 10.2398 22.426 9.1879 21.8138C8.98971 21.9644 8.75011 22.0337 8.51054 22.0098C8.27098 21.9858 8.04653 21.8701 7.87604 21.6827C7.70554 21.4952 7.59972 21.2478 7.57689 20.9832C7.55407 20.7187 7.61566 20.4536 7.75102 20.234C7.41248 19.5523 7.29967 18.7615 7.43203 17.9979C7.48709 17.7018 7.64638 17.4419 7.87484 17.2756C8.10331 17.1092 8.38224 17.0499 8.65028 17.1107C8.91831 17.1716 9.15349 17.3475 9.30408 17.6C9.45468 17.8524 9.50834 18.1605 9.45328 18.4566C9.4024 18.7255 9.48215 19.16 9.81902 19.5321C10.3525 20.12 10.8847 19.9666 11.0345 19.801C11.1844 19.6339 11.3233 19.046 10.7912 18.4582C9.71315 17.2672 9.35565 15.2104 10.5492 13.8933ZM16.0973 12.1828C16.3527 12.4649 16.6559 12.6886 16.9896 12.8413C17.3232 12.9939 17.6809 13.0724 18.042 13.0723C18.4032 13.0723 18.7608 12.9936 19.0944 12.8409C19.428 12.6881 19.7311 12.4642 19.9865 12.1821C20.2418 11.8999 20.4443 11.5649 20.5824 11.1963C20.7206 10.8276 20.7917 10.4325 20.7916 10.0336C20.7915 9.63457 20.7203 9.2395 20.5821 8.87091C20.4438 8.50232 20.2412 8.16743 19.9858 7.88535C19.4699 7.31567 18.7704 6.99571 18.041 6.99585C17.3117 6.99599 16.6122 7.31623 16.0966 7.88611C15.5809 8.45599 15.2913 9.22884 15.2915 10.0346C15.2916 10.8404 15.5814 11.6132 16.0973 12.1828Z" fill="#415FA1"/>
</svg>
