<svg width="35" height="35" viewBox="0 0 35 35" fill="none" xmlns="http://www.w3.org/2000/svg">
<path d="M1.05127 1.44531H32.8467V33.2407H1.05127V1.44531ZM3.94176 4.33581V30.3502H29.9562V4.33581H3.94176ZM12.6132 7.2263V10.1168H15.5037V13.0073H12.6132V15.8978H9.72275V13.0073H6.83225V10.1168H9.72275V7.2263H12.6132ZM18.3942 10.1168H27.0657V13.0073H18.3942V10.1168ZM9.12442 19.0368L11.168 21.0804L13.2116 19.0368L15.2552 21.0804L13.2116 23.124L15.2566 25.1676L13.2116 27.2126L11.168 25.1676L9.12442 27.2141L7.07795 25.1676L9.12442 23.124L7.08084 21.0804L9.12442 19.0368ZM18.3942 19.5109H27.0657V22.4014H18.3942V19.5109ZM18.3942 23.8466H27.0657V26.7371H18.3942V23.8466Z" fill="#415FA1"/>
</svg>
