<svg width="47" height="47" viewBox="0 0 47 47" fill="none" xmlns="http://www.w3.org/2000/svg">
<path d="M30.8319 32.758V36.612H3.854V32.758C3.854 32.758 3.854 25.0501 17.343 25.0501C30.8319 25.0501 30.8319 32.758 30.8319 32.758ZM24.0875 14.4516C24.0875 13.1177 23.6919 11.8137 22.9508 10.7046C22.2097 9.59543 21.1564 8.73097 19.924 8.2205C18.6916 7.71002 17.3355 7.57646 16.0272 7.8367C14.7189 8.09693 13.5171 8.73928 12.5739 9.68252C11.6307 10.6257 10.9883 11.8275 10.7281 13.1358C10.4678 14.4441 10.6014 15.8002 11.1119 17.0326C11.6224 18.265 12.4868 19.3183 13.5959 20.0594C14.7051 20.8005 16.009 21.1961 17.343 21.1961C19.1317 21.1961 20.8472 20.4855 22.112 19.2207C23.3769 17.9558 24.0875 16.2403 24.0875 14.4516ZM30.7163 25.0501C31.9009 25.9668 32.8703 27.132 33.5561 28.4637C34.2419 29.7954 34.6276 31.2613 34.6859 32.758V36.612H42.3939V32.758C42.3939 32.758 42.3939 25.763 30.7163 25.0501ZM28.9049 7.7071C27.5787 7.70093 26.2819 8.09738 25.1858 8.84403C26.3564 10.4795 26.9858 12.4404 26.9858 14.4516C26.9858 16.4628 26.3564 18.4236 25.1858 20.0591C26.2819 20.8058 27.5787 21.2022 28.9049 21.1961C30.6937 21.1961 32.4092 20.4855 33.674 19.2207C34.9389 17.9558 35.6494 16.2403 35.6494 14.4516C35.6494 12.6628 34.9389 10.9474 33.674 9.68252C32.4092 8.41768 30.6937 7.7071 28.9049 7.7071Z" fill="#415FA1"/>
</svg>
