<svg width="40" height="40" viewBox="0 0 40 40" fill="none" xmlns="http://www.w3.org/2000/svg">
<path d="M29.5483 23.2983C30.8464 23.2983 31.9897 23.959 32.6604 24.9625H22.467C21.3636 24.9625 20.3053 25.4009 19.5251 26.1811C18.7448 26.9614 18.3065 28.0196 18.3065 29.1231V35.78C18.3065 36.0496 18.3314 36.3114 18.3814 36.5655C13.4902 36.2559 9.83392 34.4852 7.51399 31.2283C6.96109 30.453 6.66381 29.5245 6.66357 28.5722V27.0411C6.66402 26.0486 7.05849 25.0969 7.76031 24.395C8.46214 23.6932 9.41388 23.2987 10.4064 23.2983H29.5483ZM19.9707 3.33594C21.0634 3.33594 22.1455 3.55117 23.1551 3.96934C24.1646 4.38752 25.0819 5.00045 25.8546 5.77314C26.6273 6.54582 27.2402 7.46314 27.6584 8.4727C28.0766 9.48226 28.2918 10.5643 28.2918 11.6571C28.2918 12.7498 28.0766 13.8318 27.6584 14.8414C27.2402 15.851 26.6273 16.7683 25.8546 17.541C25.0819 18.3137 24.1646 18.9266 23.1551 19.3448C22.1455 19.7629 21.0634 19.9782 19.9707 19.9782C17.7638 19.9782 15.6473 19.1015 14.0868 17.541C12.5263 15.9805 11.6496 13.8639 11.6496 11.6571C11.6496 9.45016 12.5263 7.33365 14.0868 5.77314C15.6473 4.21262 17.7638 3.33594 19.9707 3.33594ZM19.9707 29.1231C19.9707 28.461 20.2337 27.8261 20.7019 27.3579C21.17 26.8897 21.805 26.6267 22.467 26.6267H35.7808C36.4429 26.6267 37.0778 26.8897 37.546 27.3579C38.0141 27.8261 38.2772 28.461 38.2772 29.1231V35.78C38.2772 36.442 38.0141 37.077 37.546 37.5451C37.0778 38.0133 36.4429 38.2763 35.7808 38.2763H22.467C21.805 38.2763 21.17 38.0133 20.7019 37.5451C20.2337 37.077 19.9707 36.442 19.9707 35.78V29.1231ZM36.6129 29.9552C36.1716 29.9552 35.7482 29.7799 35.4361 29.4677C35.124 29.1556 34.9487 28.7323 34.9487 28.291H33.2845C33.2845 29.1737 33.6352 30.0203 34.2594 30.6445C34.8836 31.2687 35.7302 31.6194 36.6129 31.6194V29.9552ZM36.6129 33.2836C35.7302 33.2836 34.8836 33.6343 34.2594 34.2585C33.6352 34.8827 33.2845 35.7293 33.2845 36.6121H34.9487C34.9487 36.1707 35.124 35.7474 35.4361 35.4353C35.7482 35.1232 36.1716 34.9479 36.6129 34.9479V33.2836ZM23.2991 28.291C23.2991 28.7323 23.1238 29.1556 22.8117 29.4677C22.4996 29.7799 22.0763 29.9552 21.6349 29.9552V31.6194C22.5177 31.6194 23.3643 31.2687 23.9885 30.6445C24.6127 30.0203 24.9634 29.1737 24.9634 28.291H23.2991ZM24.9634 36.6121C24.9634 35.7293 24.6127 34.8827 23.9885 34.2585C23.3643 33.6343 22.5177 33.2836 21.6349 33.2836V34.9479C22.0763 34.9479 22.4996 35.1232 22.8117 35.4353C23.1238 35.7474 23.2991 36.1707 23.2991 36.6121H24.9634ZM32.0363 32.4515C32.0363 31.6791 31.7295 30.9383 31.1833 30.3922C30.6371 29.846 29.8963 29.5391 29.1239 29.5391C28.3515 29.5391 27.6107 29.846 27.0646 30.3922C26.5184 30.9383 26.2115 31.6791 26.2115 32.4515C26.2115 33.2239 26.5184 33.9647 27.0646 34.5109C27.6107 35.0571 28.3515 35.3639 29.1239 35.3639C29.8963 35.3639 30.6371 35.0571 31.1833 34.5109C31.7295 33.9647 32.0363 33.2239 32.0363 32.4515Z" fill="#415FA1"/>
</svg>
