<svg width="66" height="76" viewBox="0 0 66 76" fill="none" xmlns="http://www.w3.org/2000/svg">
<path d="M17.6819 43.3784V69.9978C17.6819 71.5897 17.0964 73.1163 16.0542 74.2419C15.0121 75.3675 13.5986 75.9999 12.1248 75.9999H5.59333C4.86053 76.005 4.13402 75.8536 3.45563 75.5542C2.77723 75.2549 2.16035 74.8136 1.6405 74.2558C1.12064 73.6979 0.70808 73.0345 0.426554 72.3037C0.145029 71.573 0.000102488 70.7893 0.000117938 69.9978V43.3784C-0.00467602 42.5836 0.136723 41.7957 0.416111 41.0605C0.695498 40.3252 1.10731 39.6572 1.62764 39.0952C2.14798 38.5332 2.76648 38.0884 3.44724 37.7867C4.128 37.4849 4.85748 37.3322 5.59333 37.3374H12.1248C12.8576 37.3374 13.5832 37.4939 14.2597 37.798C14.9363 38.102 15.5505 38.5476 16.067 39.1091C16.5835 39.6706 16.9921 40.3368 17.2693 41.0695C17.5464 41.8022 17.6866 42.5869 17.6819 43.3784ZM41.859 6.04102V69.9978C41.859 70.7893 41.7141 71.573 41.4325 72.3037C41.151 73.0345 40.7385 73.6979 40.2186 74.2558C39.6987 74.8136 39.0819 75.2549 38.4035 75.5542C37.7251 75.8536 36.9986 76.005 36.2658 75.9999H29.7343C28.2572 75.9999 26.84 75.3688 25.7921 74.2443C24.7442 73.1198 24.1507 71.5932 24.1411 69.9978V6.04102C24.1506 4.44199 24.7429 2.91137 25.7898 1.78066C26.8367 0.649961 28.2539 0.0102177 29.7343 0H36.2658C37.7492 0 39.1718 0.636462 40.2208 1.76937C41.2697 2.90228 41.859 4.43884 41.859 6.04102ZM66 26.2297V69.9978C66 71.5897 65.4145 73.1163 64.3724 74.2419C63.3302 75.3675 61.9167 75.9999 60.4429 75.9999H53.9114C53.1786 76.005 52.4521 75.8536 51.7737 75.5542C51.0954 75.2549 50.4785 74.8136 49.9586 74.2558C49.4388 73.6979 49.0262 73.0345 48.7447 72.3037C48.4631 71.573 48.3182 70.7893 48.3182 69.9978V26.2297C48.3182 25.4364 48.4629 24.6508 48.744 23.9179C49.0251 23.185 49.4371 22.519 49.9564 21.9581C50.4758 21.3971 51.0924 20.9521 51.771 20.6485C52.4496 20.3449 53.1769 20.1887 53.9114 20.1887H60.5872C62.0391 20.2393 63.4159 20.898 64.4261 22.0255C65.4363 23.153 66.0008 24.6607 66 26.2297Z" fill="url(#paint0_linear_6_2551)"/>
<defs>
<linearGradient id="paint0_linear_6_2551" x1="33" y1="0" x2="33" y2="76" gradientUnits="userSpaceOnUse">
<stop stop-color="#9F2179"/>
<stop offset="0.586538" stop-color="#EDA2D6"/>
<stop offset="1" stop-color="#F6E7F2"/>
</linearGradient>
</defs>
</svg>
