<svg width="85" height="74" viewBox="0 0 85 74" fill="none" xmlns="http://www.w3.org/2000/svg">
<path fill-rule="evenodd" clip-rule="evenodd" d="M73.4091 7.4H11.5909C10.5662 7.4 9.58348 7.78982 8.8589 8.48371C8.13433 9.17759 7.72727 10.1187 7.72727 11.1V62.9C7.72727 63.8813 8.13433 64.8224 8.8589 65.5163C9.58348 66.2102 10.5662 66.6 11.5909 66.6H73.4091C74.4338 66.6 75.4165 66.2102 76.1411 65.5163C76.8657 64.8224 77.2727 63.8813 77.2727 62.9V11.1C77.2727 10.1187 76.8657 9.17759 76.1411 8.48371C75.4165 7.78982 74.4338 7.4 73.4091 7.4ZM11.5909 0C8.51681 0 5.56862 1.16946 3.3949 3.25112C1.22118 5.33277 0 8.1561 0 11.1V62.9C0 65.8439 1.22118 68.6672 3.3949 70.7489C5.56862 72.8305 8.51681 74 11.5909 74H73.4091C76.4832 74 79.4314 72.8305 81.6051 70.7489C83.7788 68.6672 85 65.8439 85 62.9V11.1C85 8.1561 83.7788 5.33277 81.6051 3.25112C79.4314 1.16946 76.4832 0 73.4091 0H11.5909ZM19.3182 18.5H27.0455V25.9H19.3182V18.5ZM38.6364 18.5C37.6117 18.5 36.6289 18.8898 35.9044 19.5837C35.1798 20.2776 34.7727 21.2187 34.7727 22.2C34.7727 23.1813 35.1798 24.1224 35.9044 24.8163C36.6289 25.5102 37.6117 25.9 38.6364 25.9H61.8182C62.8429 25.9 63.8256 25.5102 64.5502 24.8163C65.2748 24.1224 65.6818 23.1813 65.6818 22.2C65.6818 21.2187 65.2748 20.2776 64.5502 19.5837C63.8256 18.8898 62.8429 18.5 61.8182 18.5H38.6364ZM27.0455 33.3H19.3182V40.7H27.0455V33.3ZM34.7727 37C34.7727 36.0187 35.1798 35.0776 35.9044 34.3837C36.6289 33.6898 37.6117 33.3 38.6364 33.3H61.8182C62.8429 33.3 63.8256 33.6898 64.5502 34.3837C65.2748 35.0776 65.6818 36.0187 65.6818 37C65.6818 37.9813 65.2748 38.9224 64.5502 39.6163C63.8256 40.3102 62.8429 40.7 61.8182 40.7H38.6364C37.6117 40.7 36.6289 40.3102 35.9044 39.6163C35.1798 38.9224 34.7727 37.9813 34.7727 37ZM27.0455 48.1H19.3182V55.5H27.0455V48.1ZM34.7727 51.8C34.7727 50.8187 35.1798 49.8776 35.9044 49.1837C36.6289 48.4898 37.6117 48.1 38.6364 48.1H61.8182C62.8429 48.1 63.8256 48.4898 64.5502 49.1837C65.2748 49.8776 65.6818 50.8187 65.6818 51.8C65.6818 52.7813 65.2748 53.7224 64.5502 54.4163C63.8256 55.1102 62.8429 55.5 61.8182 55.5H38.6364C37.6117 55.5 36.6289 55.1102 35.9044 54.4163C35.1798 53.7224 34.7727 52.7813 34.7727 51.8Z" fill="#4ABBDA"/>
</svg>
