<svg width="22" height="26" viewBox="0 0 22 26" fill="none" xmlns="http://www.w3.org/2000/svg">
<path fill-rule="evenodd" clip-rule="evenodd" d="M5.1535 19.8192C4.78481 20.0861 4.5078 20.4985 4.37143 20.9834C4.23505 21.4683 4.24808 21.9945 4.4082 22.4692C4.56833 22.9439 4.86526 23.3363 5.24652 23.5773C5.62779 23.8183 6.06886 23.8923 6.49181 23.7862C6.91476 23.6801 7.29238 23.4008 7.55794 22.9976C7.82351 22.5943 7.95994 22.0931 7.94312 21.5825C7.92631 21.0719 7.75733 20.5848 7.46605 20.2071C7.17477 19.8295 6.77993 19.5857 6.35128 19.5188C6.32838 19.4219 6.3074 19.3243 6.28833 19.2263C6.20511 18.78 6.13985 18.3293 6.09278 17.8757C6.04226 17.4172 6.01369 16.9557 6.00722 16.4934C6.00623 16.3664 6.00929 16.2395 6.01639 16.1128C6.25146 16.0329 6.48674 15.9614 6.72222 15.8983C6.99172 15.8261 7.15183 16.2016 7.28078 16.5064L7.33333 16.6284H14.5133C14.6532 16.315 14.9704 15.8152 15.2778 15.8983C15.6061 15.9869 15.9339 16.0911 16.2611 16.211L16.2592 16.2117C16.258 16.2103 16.258 16.2108 16.2592 16.2132C16.2617 16.2233 16.2751 16.2709 16.2886 16.3721C16.304 16.4895 16.3142 16.64 16.3191 16.8234C16.3277 17.1874 16.3099 17.6302 16.2739 18.0765C16.2372 18.5221 16.1828 18.9533 16.1217 19.2934C16.1083 19.369 16.0948 19.4379 16.0814 19.5H15.2778C15.1643 19.5001 15.0531 19.5375 14.9566 19.608C14.8601 19.6785 14.7822 19.7794 14.7314 19.8994L14.1203 21.3438C14.0778 21.444 14.0557 21.5546 14.0556 21.6667V23.1111C14.0556 23.3027 14.1199 23.4864 14.2345 23.6218C14.3492 23.7572 14.5046 23.8333 14.6667 23.8333H15.8889V22.3889H15.2778V21.8371L15.6554 20.9444H17.3446L17.7222 21.8371V22.3889H17.1111V23.8333H18.3333C18.4954 23.8333 18.6508 23.7572 18.7655 23.6218C18.8801 23.4864 18.9444 23.3027 18.9444 23.1111V21.6667C18.9443 21.5546 18.9222 21.444 18.8797 21.3438L18.2686 19.8994C18.2178 19.7794 18.1399 19.6785 18.0434 19.608C17.9469 19.5375 17.8357 19.5001 17.7222 19.5H17.3336C17.3989 19.1151 17.4533 18.6658 17.49 18.2152C17.5303 17.7284 17.5511 17.2236 17.5407 16.783L17.5401 16.7628C19.9772 17.9797 22 19.981 22 22.0783V26H0V22.0783C0 19.8886 2.20611 17.8028 4.78561 16.6061C4.79233 17.0553 4.82839 17.563 4.88033 18.0548C4.93656 18.5857 5.01294 19.1136 5.09728 19.5484C5.11561 19.6413 5.13435 19.7316 5.1535 19.8192ZM6.11111 22.3997C6.43989 22.3997 6.72222 22.0819 6.72222 21.6667C6.72222 21.2521 6.43989 20.9336 6.11111 20.9336C5.78233 20.9336 5.5 21.2514 5.5 21.6667C5.5 22.0812 5.78233 22.3997 6.11111 22.3997ZM11 13C12.2966 13 13.5401 12.3913 14.457 11.3077C15.3738 10.2242 15.8889 8.75458 15.8889 7.22222C15.8889 5.68986 15.3738 4.22026 14.457 3.13672C13.5401 2.05317 12.2966 1.44444 11 1.44444C9.70339 1.44444 8.45988 2.05317 7.54303 3.13672C6.62619 4.22026 6.11111 5.68986 6.11111 7.22222C6.11111 8.75458 6.62619 10.2242 7.54303 11.3077C8.45988 12.3913 9.70339 13 11 13ZM11 14.4444C14.3752 14.4444 17.1111 11.2111 17.1111 7.22222C17.1111 3.23339 14.3752 0 11 0C7.62483 0 4.88889 3.23339 4.88889 7.22222C4.88889 11.2111 7.62483 14.4444 11 14.4444Z" fill="#4ABBDA"/>
</svg>
